<?xml version="1.0" encoding="UTF-8" standalone="no"?>
<!-- Created with Inkscape (http://www.inkscape.org/) -->
<svg id="svg2" xmlns:rdf="http://www.w3.org/1999/02/22-rdf-syntax-ns#" xmlns="http://www.w3.org/2000/svg" height="139.9" width="180.23" version="1.1" xmlns:cc="http://creativecommons.org/ns#" xmlns:dc="http://purl.org/dc/elements/1.1/">
 <metadata id="metadata7">
  <rdf:RDF>
   <cc:Work rdf:about="">
    <dc:format>image/svg+xml</dc:format>
    <dc:type rdf:resource="http://purl.org/dc/dcmitype/StillImage"/>
    <dc:title/>
   </cc:Work>
  </rdf:RDF>
 </metadata>
 <g id="layer2">
  <path id="path3849" d="m185.36-2.6786a78.393,56.607,0,1,1,-156.79,0,78.393,56.607,0,1,1,156.79,0z" transform="matrix(0.83940775,0,0,1.0315458,11.392387,65.97737)" fill="#b55ad4"/>
 </g>
 <g id="layer1" transform="translate(-8.3745345,-877.54078)">
  <path id="path2989" d="m179.29,90.357c0,49.114-39.975,88.929-89.286,88.929s-89.286-39.815-89.286-88.929c-0.00371-49.118,39.971-88.932,89.282-88.932s89.286,39.815,89.286,88.929z" transform="matrix(-0.85640974,0,0,0.7382558,178.441,875.09327)" fill="none"/>
  <g id="text2995" style="letter-spacing:0px;word-spacing:0px;" font-weight="normal" transform="translate(9.6428572,3.9285714)" font-stretch="normal" line-height="125%" font-size="40px" font-variant="normal" font-family="Open Sans" font-style="normal" fill="#000000">
   <path id="path3995" style="text-align:start;" d="M161.56,49.094c-1.98-0.122-1.51,2.606-0.31,3.375,0.96,1.304,2.56,1.994,3.87,2.906,1.53,0.681,2.68,1.625,3.76,2.875,1.63,1.562,3.76,2.928,4.46,5.188,0.29,1.74-2.21,2.538-3.46,2.812-1.83,0.559-1.16,0.467-3.26,0.5-1.7-0.732-5.12-3.106-6.71-4-1.29-1.033-2.62-1.934-3.47-3.375-1.01-1.092-2.06-2.302-3.47-2.844-1.72,0.157-1.79,3.198-0.44,4.063,1.54,1.727,5.23,4.761,9.44,7.312,4.47,3.523-7.59-0.532-8.66,0.844-1.83,1.431-3.35,4.006-2.25,6.312,0.79,1.866,2.56,3.196,4.28,4.188,1.33,0.977,2.54,2.22,3.97,3.094,0.46,0.836,1.08,1.645,1.22,2.594,0.34,2.973-0.86,5.969-2.97,8.062-1.13-0.248-0.85-2.699-2.31-3.125-1.98-0.965-4.18-1.566-6.37-1.719-2.56,0.212-4.28,2.338-5.82,4.156-0.99,1.02-2.07,1.985-2.59,3.344-0.61,1.306-0.75,2.738-0.66,4.156-0.25,0.958-0.5,2.388-1.65,2.688-1.22,1.75-3.39,1.28-4.22-0.53-1.59-1.65-4.52-2.391-6.32-0.63-1.59,1.92-1.45,4.77-1.21,7.13,0.26,1.88,1.72,3.89,3.84,3.53,1.53-0.35,4.15-0.61,3.97,1.72,0.26,2.17-0.37,4.3-1.28,6.25-0.81,2.1-1.88,4.18-3.72,5.56-2.04-0.16-3.11-2.5-4.28-3.97-1.52-2.54-3.16-5.25-3.16-8.31-0.2-2.43-0.3-4.87-0.62-7.28,0.34-2-1.51-3.74-0.63-5.72,0.5-2.104,0.87-4.348,0.09-6.438-0.59-2.524-0.81-5.104-0.71-7.687,0.37-2.213-2.53-2.285-3.75-1.219-1.87,1.393-1.17,3.934-1.1,5.906,0.04,2.014,0.92,3.959,0.44,5.938-0.31,4.09,1.64,7.88,1.91,11.91-0.11,2.44-0.26,4.9-0.16,7.34-0.12,0.33-0.21,0.71-0.31,1.19,0.05,1.57-1.27,2.36-2.1,3.37-1.11,1.67-2.04,2.55-3.56,4.35-1.51,1.79-3.49,4.28-5.47,6.21-1.26,0.94-2.74,1.76-4.34,1.85-1.577-0.72-1.824-2.82-2.282-4.31-0.364-1.43-0.529-2.94,0.093-4.32,0.409-1.54,2.249-1.71,3.279-2.68,1.42-1.15,2.46-2.7,3.53-4.16,1.03-2.15,2.42-4.21,2.63-6.66,0.43-2.48-0.59-5.69-3.25-6.43-2.26-0.56-4.23,1.25-5.47,2.93-1.456,1.49-1.947,3.58-2.656,5.47-0.876,2.76-1.617,5.59-2.156,8.44-2.339,2.06-5.032,3.74-7.782,5.19-2.427,0.92-4.874,2.05-7.468,2.34-1.486-1.37-0.114-4.05-0.688-6,0.106-2.1-0.944-4.79,1.281-6.12,1.709-1.64,4.061-2.88,4.938-5.19,0.294-2.36-2.354-3.75-4.407-3.63-3.217-0.01-6.55,0.24-9.562,1.44-1.113,0.71-4.88,3.47-4.156,0.44,0.157-2.94,3.087-3.9,5.218-5.19,2.722-1.45,3.858-4.38,5.344-6.874,1.611-1.771,2.827-3.802,3.906-5.937,0.847-2.126,2.997-4.456,2.188-6.781-2.019-0.944-4.865-0.622-6.531,0.906-3.877,4.143-7.021,8.912-10.094,13.656-1.814,1.55-1.385,4.72-3.875,5.66-0.65,0.12-1.365,0.42-1.906,0.84-0.43,0.11-0.88,0.22-1.406,0.34-2.974,0.17-5.98,0.57-8.938,0.07-1.275-0.09-3.124-0.84-1.594-2.16,1.838-2.22,3.963-4.264,6.313-5.938,2.823-1.648,6.09-2.461,8.719-4.437,1.578-1.208,0.948-3.469-0.282-4.656-1.237-1.351-2.995-0.424-4.5-0.313-1.719,0.112-3.47,0.318-5.031,1.094-4.71,1.272-9.605,1.877-14.469,2.156-1.179,0.186-4.177-0.023-2.062-1.5,3.009-2.558,6.304-4.894,10-6.344,1.743-0.895,4.044-0.537,5.531-1.812,0.674-1.614-0.75-3.342-2.156-4.031-1.737-0.922-3.821-0.381-5.219,0.906-1.127,1.458-2.368,2.562-4.062,3.375-1.987,0.878-3.127,2.899-5.188,3.625-1.731,0.551-3.291,1.469-4.5,2.813-1.625,1.165-1.702,3.675-0.125,4.906,1.596,1.142,3.713,1.929,5.687,1.75,2.068-0.783,4.318-0.263,6.469-0.563,2.474-0.214,4.948-0.69,7.438-0.531,1.121,0.825-1.33,2.282-1.875,3.062-2.021,1.814-3.815,3.878-5.5,5.998-1.021,1.24-1.147,3.37,0.375,4.28,1.25,1.13,2.941,0.99,4.437,1.32,3.144,0.51,6.048-0.07,9.469,0.28,1.004-0.05,1.85,0.12,2.656,0.31,0.177,1.97-0.009,4.06-0.75,5.84-1.138,3.06-3.391,5.54-4.5,8.6,0.985,1.97,4.092,1.81,4.907-0.25,2.232-2.82,4.113-6.04,7-8.25,2.124-0.43,2.563,3.12,4.593,3.62,2.128,0.76,2.28,3.26,2,5.16,0.452,2.02,0.084,4.15,0.75,6.12,1.038,2.35,4.131,1.97,6.125,1.25,1.823-1,3.227-2.54,5.438-2.9,2.382-1.27,4.992-2.08,7.344-3.41,0.085,1.52,0.118,3.02,0.124,4.53,0.672,1.35,0.826,2.9,1.469,4.25,0.657,1.57,2.422,2.5,4.099,2.1,1.6-0.25,2.87-0.74,4.53-1.66,1.65-0.92,3.81-1.98,4.97-3.81,0.79-1.1,2.58-2.69,3.37-3.85,1.99-2.5,2.69-2.49,4.59-5.34,0.52-0.73,1.19-1.92,1.72-3.12,0.39,1.24,1.29,2.35,2.06,3.43,0.85,1.67,2.38,2.87,3,4.66,0.69,1.58,1.97,3.71,4,3.15,2.21-0.66,3.78-2.55,4.76-4.56,1.54-3,3.1-6.06,3.96-9.34,0.62-1.98,0.72-3.98-0.03-5.94-0.56-1.95,0.76-4.09,2.6-4.78,0.31-0.26,0.59-0.59,0.84-0.94,0.61,1.79,1.65,3.39,2.84,4.85,1.37,1.63,2.56,3.49,4.32,4.75,1.96,1.29,4.31,0.29,6.4-0.07,1.98-0.44,4.05-1.25,5.31-2.9,0.39-1.38,1.15-2.65,1.35-4.07,0.19-2.28,0.5-4.63-0.19-6.87-0.28-1.346-1.38-2.496-0.09-3.625,0.92-2.292,2.31-4.39,2.9-6.813,0.76-2.607,0.85-5.455-0.06-8.031-0.06-0.134-0.13-0.259-0.22-0.375-0.5-0.959-1.72-1.595-2.53-2.25-1.99-1.426-4.31-2.443-6.03-4.218-1.13-1.601,0.48-3.158,2.59-3.282,1.75-0.639,5.26,0.386,7.07,0.532,1.62,0.542,1.53,1.618,2.78,2.718,2.02,2.009,3.07,3.338,5.09,5.344,1,1.587,1.97,3.349,3.53,4.438,1.49,1.225,2.65-0.797,2.35-2.188-0.02-1.654-1.27-2.863-2.57-3.688-2.16-1.739-4.54-4.975-6.87-6.5-0.27-1.134-1.41-2.004,0.72-2.281,2.5-0.551,5.48-0.421,7.37-2.437,1.32-1.652,1.27-4.196,0.1-5.906-0.88-1.12-1.89-2.08-2.85-3.157-3.09-2.957-6.32-5.851-10-8.062-0.83-0.46-1.58-1.1-2.5-1.375zm-152.5,9.062c-0.7885,0.032-1.549,0.264-2.2187,0.813-2.871,1.978-5.1464,5.536-4.2813,9.125,0.6484,1.683,1.9069,3.219,3.3125,4.468,2.7396,2.145,6.211,3.466,9.625,3.532,3.529,0.067,7.022,0.483,10.531,0.312,2.675-0.13,5.396,0.07,8-0.75,1.864-0.371,3.764-0.288,5.594-1,1.871-0.727,3.992-0.353,5.906-0.937,1.371-0.107,2.702,0.387,4.063,0.437,3.073-0.15,1.463-3.724-0.094-4.875-1.484-1.689-3.788-1.936-5.594-3.031-1.619-0.492-3.36-0.639-4.781-1.656-1.615-1.892-5.112,0.339-2.719,2.125,1.221,1.24,4.266,1.321,4.406,3.187-2.076,1.452-4.86,0.639-7.124,1.594-2.163,0.154-4.261,0.799-6.407,0.875-5.024-0.377-10.6,0.887-14.906-0.625-2.5756-0.689-5.6981-1.193-7.25-3.625-1.0144-2.138,0.49-4.124,2.1875-5.313,1.7779-1.138,4.1855-0.437,5.6255,1.063,2.956,1.139,1.902-3.91-0.126-4.469-1.061-0.779-2.435-1.303-3.7495-1.25zm49.032,12.75c-1.428-0.066-2.835,1.694-1.969,3.25,0.648,0.956,1.659,2.151,2.906,2.156,2.368-0.312,1.812-3.52,0.407-4.656-0.404-0.502-0.868-0.728-1.344-0.75zm90.876,20.625c1.38-0.133,2.59,0.747,3.44,1.75,0.88,1.219,2.42,2.786,1.43,4.375-0.71,1.734-2.85,2.584-4.56,1.782-1.46-0.648-3.22-1.704-3.16-3.532-0.1-1.838,0.9-4.009,2.85-4.375zm7.72,9.529c0.41,2.34,0.45,4.78-0.1,7.1-1,1.56-3.04,1.71-4.65,2.25-1.85,0.34-3.27-1.23-4.38-2.47-1.31-1.57-2.32-3.43-2.62-5.47,0.97-0.88,1.66,0.77,2.68,0.87,2.78,1.03,6.07,0.23,8.35-1.56,0.26-0.22,0.49-0.46,0.72-0.72zm-53.72,8.13c0.96-0.12,2.04,0.59,1.87,1.69v0.18c-0.45,2.26-0.52,4.77-2.06,6.63-0.85,0.95-1.64,2.73-3.092,2.56-0.97-1.19,0.242-2.83,0.312-4.19,0.59-2.18,0.98-4.49,2.09-6.47,0.25-0.24,0.56-0.36,0.88-0.4zm-24.845,1.53c1.001-0.05,1.807,0.21,1.719,1.28-1.177,1.51-2.725,4.41-5,3.25-2.237-1.06-2.621-4,0.468-4.09,0.644-0.08,1.812-0.4,2.813-0.44z" transform="translate(-1.2683227,873.61221)"/>
  </g>
 </g>
 <g id="layer3">
  <g id="text2991" style="letter-spacing:0px;word-spacing:0px;" font-weight="normal" transform="matrix(1.3577325,0,0,1.6045663,238.19422,-1391.5527)" font-stretch="normal" line-height="125%" font-size="40px" font-variant="normal" font-family="Open Sans" font-style="normal" fill="#000000">
   <path id="path3989" style="text-align:start;" d="M126.22,15.188c-1.82,0.088-3.97,0.649-5.44,1.312-1.77,0.524-5.75,2.671-10.25,8.469-2.84,3.663-7.23,10.868-8.09,13.062-0.29,0.53-0.49,1.064-0.5,1.531-1.46,4.349-6.974,17.173-12.94,20.813-0.269,0.181-2.289,1.252-3.344,1.5-1.63,0.383-3.749,0.871-4.687,0.031-2.509-2.473-2.954-3.526-3.188-6.844-0.133-1.892-0.21-5.193-0.093-6.281,0.001-1.178-0.22-3.603-0.219-4.781,0.001-1.595-0.304-4.806,0.125-6.969,0.675-3.404,2.194-10.638,6.125-11.562,2.78-0.654,4.397,3.084,6.219,2.656,2.301-0.541,3.068-4.274,3.281-6.563,0.194-2.401-3.701-4.893-5.907-4.374-1.917,0.45-4.284,1.73-5.781,2.906-1.63,0.972-6.053,3.781-8.437,10.937-3.091,4.142-7.554,15.553-7.594,17.094,0.191,1.133,2.037,1.989,3.188,1.719,0.767-0.18,2.336-3.251,3.468-4.813-0.425,3.987-1.727,5.121-0.375,14.344,0.743,5.008,2.134,9.606,7.75,10.406,0.939,0.251,2.1,0.208,3.25-0.062,5.561-1.307,10.112-5.828,14.157-10.625,2.604-3.089,6.202-8.76,7.622-12.156,0.36-0.911,0.63-1.976,0.88-3-0.45,2.182-0.8,5.075-1,9.75-0.21,5.078-0.21,8.538,5.12,10.781,0.87,0.488,2.05,0.745,3.22,0.781,5.67,0.172,11.66-3.964,16.5-7.594,3.13-2.344,6.98-6.025,9-8.968,0.81-1.247,1.33-2.993,2.13-4.188,1.32-1.981,4.39-4.505,4.43-6.469,0.04-1.732-1.32-1.992-2.59-2.031-0.78-0.024-2.33,0.265-3.03,0.938-0.9,1.012-1.83,2.382-2.16,3.874-2.23,3.862-10,14.94-16.5,16.938-0.29,0.107-2.45,0.626-3.53,0.594-1.66-0.051-3.8-0.125-4.56-1.188-1.99-3.065-2.36-5.041-1.97-8.375,0.22-1.844,0.87-4.25,1.19-5.281,0.22-1.149,0.46-3.57,0.69-4.719,0,0,0.56-4.745,1.4-6.781,1.28-3.116,4.15-9.809,8.16-9.688,2.83,0.087,3.7,4.163,5.56,4.219,2.35,0.072,3.8-3.355,4.44-5.531,0.63-2.292-2.72-5.744-4.97-5.812-0.25-0.008-0.49-0.013-0.75,0z" transform="matrix(0.73652211,0,0,0.62322137,-175.43531,867.24537)"/>
  </g>
 </g>
</svg>
