<?xml version="1.0" encoding="UTF-8" standalone="no"?>
<!-- Created with Inkscape (http://www.inkscape.org/) -->

<svg
   xmlns:dc="http://purl.org/dc/elements/1.1/"
   xmlns:cc="http://creativecommons.org/ns#"
   xmlns:rdf="http://www.w3.org/1999/02/22-rdf-syntax-ns#"
   xmlns:svg="http://www.w3.org/2000/svg"
   xmlns="http://www.w3.org/2000/svg"
   xmlns:sodipodi="http://sodipodi.sourceforge.net/DTD/sodipodi-0.dtd"
   xmlns:inkscape="http://www.inkscape.org/namespaces/inkscape"
   width="180.23477"
   height="139.8974"
   id="svg2"
   version="1.1"
   inkscape:version="0.48.5 r10040"
   sodipodi:docname="cc-jukebox-4paths-4.svg">
  <defs
     id="defs4" />
  <sodipodi:namedview
     id="base"
     pagecolor="#ffffff"
     bordercolor="#666666"
     borderopacity="1.0"
     inkscape:pageopacity="0.0"
     inkscape:pageshadow="2"
     inkscape:zoom="3.959798"
     inkscape:cx="101.07258"
     inkscape:cy="38.318656"
     inkscape:document-units="px"
     inkscape:current-layer="layer2"
     showgrid="false"
     units="pt"
     fit-margin-top="1"
     fit-margin-left="1"
     fit-margin-right="1"
     fit-margin-bottom="1"
     inkscape:window-width="2387"
     inkscape:window-height="1381"
     inkscape:window-x="104"
     inkscape:window-y="2"
     inkscape:window-maximized="0" />
  <metadata
     id="metadata7">
    <rdf:RDF>
      <cc:Work
         rdf:about="">
        <dc:format>image/svg+xml</dc:format>
        <dc:type
           rdf:resource="http://purl.org/dc/dcmitype/StillImage" />
        <dc:title></dc:title>
      </cc:Work>
    </rdf:RDF>
  </metadata>
  <g
     inkscape:groupmode="layer"
     id="layer2"
     inkscape:label="oval"
     style="display:inline">
    <path
       sodipodi:type="arc"
       style="fill:#b55ad4;fill-opacity:1;stroke:none"
       id="path3849"
       sodipodi:cx="106.96429"
       sodipodi:cy="-2.6785717"
       sodipodi:rx="78.39286"
       sodipodi:ry="56.607143"
       d="m 185.35715,-2.6785717 a 78.39286,56.607143 0 1 1 -156.785724,0 78.39286,56.607143 0 1 1 156.785724,0 z"
       transform="matrix(0.83940775,0,0,1.0315458,11.392387,65.97737)" />
  </g>
  <g
     inkscape:label="jukebox type"
     inkscape:groupmode="layer"
     id="layer1"
     transform="translate(-8.3745345,-877.54078)">
    <path
       sodipodi:type="arc"
       style="fill:none;stroke:none"
       id="path2989"
       sodipodi:cx="90"
       sodipodi:cy="90.35714"
       sodipodi:rx="89.285713"
       sodipodi:ry="88.928574"
       d="m 179.28571,90.35714 c 0,49.11389 -39.97457,88.92857 -89.28571,88.92857 -49.311138,0 -89.2857132,-39.81468 -89.2857132,-88.92857 C 0.7142868,41.243245 40.688862,1.428566 90,1.428566 c 49.31114,0 89.28571,39.814679 89.28571,88.928574 z"
       transform="matrix(-0.85640974,0,0,0.7382558,178.441,875.09327)" />
    <g
       transform="translate(9.6428572,3.9285714)"
       style="font-size:40px;font-style:normal;font-variant:normal;font-weight:normal;font-stretch:normal;line-height:125%;letter-spacing:0px;word-spacing:0px;fill:#000000;fill-opacity:1;stroke:none;font-family:Open Sans;-inkscape-font-specification:Open Sans"
       id="text2995">
      <path
         style="font-size:72px;text-align:start;line-height:125%;letter-spacing:0.17px;writing-mode:lr-tb;text-anchor:start;font-family:Emmascript MVB Std;-inkscape-font-specification:Emmascript MVB Std"
         d="M 161.5625 49.09375 C 159.579 48.97176 160.05221 51.69967 161.25 52.46875 C 162.21277 53.77301 163.81256 54.4628 165.125 55.375 C 166.64626 56.05631 167.7983 56.99987 168.875 58.25 C 170.507 59.81217 172.64207 61.17753 173.34375 63.4375 C 173.62965 65.17761 171.13098 65.97553 169.875 66.25 C 168.04691 66.80942 168.71715 66.71653 166.625 66.75 C 164.92217 66.01841 161.49785 63.64423 159.90625 62.75 C 158.62238 61.71703 157.29002 60.81556 156.4375 59.375 C 155.43164 58.28277 154.38298 57.07256 152.96875 56.53125 C 151.24501 56.68837 151.18245 59.72941 152.53125 60.59375 C 154.0714 62.32106 157.76474 65.35507 161.96875 67.90625 C 166.44497 71.42859 154.37597 67.37437 153.3125 68.75 C 151.47578 70.1813 149.95548 72.75579 151.0625 75.0625 C 151.85471 76.92797 153.62104 78.25846 155.34375 79.25 C 156.66879 80.226705 157.87766 81.469937 159.3125 82.34375 C 159.77335 83.180348 160.39007 83.988813 160.53125 84.9375 C 160.86901 87.9112 159.6682 90.90741 157.5625 93 C 156.43414 92.75186 156.70849 90.30085 155.25 89.875 C 153.26945 88.9098 151.07142 88.30886 148.875 88.15625 C 146.31928 88.36845 144.59873 90.49373 143.0625 92.3125 C 142.07351 93.3317 140.9932 94.29748 140.46875 95.65625 C 139.85865 96.961988 139.71586 98.393962 139.8125 99.8125 C 139.56221 100.77333 139.30511 102.20444 138.15625 102.5 C 136.94129 104.2536 134.77388 103.77945 133.9375 101.96875 C 132.35397 100.31609 129.41736 99.57907 127.625 101.34375 C 126.0334 103.25835 126.17494 106.11356 126.40625 108.46875 C 126.67254 110.35383 128.12974 112.36124 130.25 112 C 131.78141 111.65409 134.39677 111.39005 134.21875 113.71875 C 134.48083 115.89013 133.84871 118.0225 132.9375 119.96875 C 132.13347 122.07165 131.0568 124.15311 129.21875 125.53125 C 127.17687 125.37308 126.10619 123.0311 124.9375 121.5625 C 123.42164 119.0199 121.7809 116.30987 121.78125 113.25 C 121.58327 110.81813 121.47921 108.37761 121.15625 105.96875 C 121.50304 103.97234 119.64864 102.23319 120.53125 100.25 C 121.02617 98.14556 121.39958 95.90239 120.625 93.8125 C 120.03212 91.28832 119.80652 88.70793 119.90625 86.125 C 120.28421 83.91152 117.37538 83.84016 116.15625 84.90625 C 114.2921 86.29876 114.98749 88.84046 115.0625 90.8125 C 115.1018 92.8255 115.98297 94.77091 115.5 96.75 C 115.19244 100.83948 117.13704 104.63157 117.40625 108.65625 C 117.30011 111.09855 117.15128 113.55921 117.25 116 C 117.13406 116.33081 117.03942 116.70909 116.9375 117.1875 C 116.9876 118.76205 115.67026 119.55049 114.84375 120.5625 C 113.73387 122.23244 112.79516 123.11455 111.28125 124.90625 C 109.76734 126.69792 107.78902 129.1923 105.8125 131.125 C 104.54693 132.0622 103.0666 132.88275 101.46875 132.96875 C 99.892993 132.24505 99.645913 130.14705 99.1875 128.65625 C 98.824463 127.23355 98.659429 125.72017 99.28125 124.34375 C 99.690249 122.80126 101.53169 122.63461 102.5625 121.65625 C 103.98378 120.50664 105.01748 118.95715 106.09375 117.5 C 107.12221 115.34694 108.51248 113.2935 108.71875 110.84375 C 109.15333 108.3555 108.13121 105.14696 105.46875 104.40625 C 103.20704 103.85148 101.23758 105.65678 100 107.34375 C 98.543778 108.82889 98.053149 110.91648 97.34375 112.8125 C 96.468073 115.57182 95.7272 118.40322 95.1875 121.25 C 92.849313 123.31317 90.156378 124.98519 87.40625 126.4375 C 84.978863 127.3604 82.531883 128.48875 79.9375 128.78125 C 78.451522 127.40565 79.824466 124.727 79.25 122.78125 C 79.356374 120.67558 78.306324 117.98599 80.53125 116.65625 C 82.240077 115.02074 84.591644 113.77512 85.46875 111.46875 C 85.762899 109.11422 83.115063 107.72182 81.0625 107.84375 C 77.844885 107.82615 74.512447 108.07657 71.5 109.28125 C 70.387489 109.98613 66.619583 112.74962 67.34375 109.71875 C 67.500501 106.77819 70.430669 105.82403 72.5625 104.53125 C 75.284212 103.08321 76.420355 100.15307 77.90625 97.65625 C 79.517437 95.88501 80.732852 93.85381 81.8125 91.71875 C 82.658519 89.5928 84.809204 87.26304 84 84.9375 C 81.981396 83.99376 79.135179 84.31614 77.46875 85.84375 C 73.592326 89.98674 70.448414 94.75623 67.375 99.5 C 65.560586 101.0508 65.989895 104.21942 63.5 105.15625 C 62.849705 105.27515 62.134669 105.57565 61.59375 106 C 61.164152 106.10503 60.714444 106.21615 60.1875 106.34375 C 57.2136 106.51235 54.208407 106.90589 51.25 106.40625 C 49.97453 106.31855 48.125784 105.57423 49.65625 104.25 C 51.494058 102.0265 53.619317 99.98559 55.96875 98.3125 C 58.791822 96.66437 62.059395 95.85068 64.6875 93.875 C 66.265589 92.66714 65.636019 90.40641 64.40625 89.21875 C 63.169182 87.86823 61.410932 88.79509 59.90625 88.90625 C 58.186776 89.01836 56.436175 89.22351 54.875 90 C 50.164684 91.27171 45.270058 91.87668 40.40625 92.15625 C 39.227233 92.34185 36.228625 92.13262 38.34375 90.65625 C 41.352951 88.09792 44.648181 85.76245 48.34375 84.3125 C 50.087385 83.41668 52.388019 83.77501 53.875 82.5 C 54.549121 80.88609 53.124803 79.15811 51.71875 78.46875 C 49.981609 77.54662 47.897817 78.08838 46.5 79.375 C 45.37312 80.83347 44.131985 81.93681 42.4375 82.75 C 40.450825 83.62822 39.310554 85.64939 37.25 86.375 C 35.518887 86.92585 33.958665 87.84351 32.75 89.1875 C 31.125285 90.35285 31.047992 92.86334 32.625 94.09375 C 34.221154 95.23639 36.337624 96.02287 38.3125 95.84375 C 40.380029 95.06075 42.630103 95.5812 44.78125 95.28125 C 47.255125 95.06677 49.728992 94.5906 52.21875 94.75 C 53.339701 95.57495 50.888685 97.03241 50.34375 97.8125 C 48.323114 99.62647 46.528746 101.69017 44.84375 103.8125 C 43.82287 105.05079 43.69709 107.18002 45.21875 108.09375 C 46.469384 109.21931 48.160476 109.07792 49.65625 109.40625 C 52.800139 109.92266 55.704232 109.34385 59.125 109.6875 C 60.12903 109.63905 60.975214 109.81103 61.78125 110 C 61.958178 111.97106 61.772258 114.05609 61.03125 115.84375 C 59.892575 118.90391 57.640272 121.38386 56.53125 124.4375 C 57.516238 126.41417 60.623183 126.25439 61.4375 124.1875 C 63.669679 121.37291 65.550746 118.14538 68.4375 115.9375 C 70.562378 115.51396 71.000679 119.05785 73.03125 119.5625 C 75.158835 120.32039 75.311189 122.82369 75.03125 124.71875 C 75.483481 126.73594 75.114852 128.87375 75.78125 130.84375 C 76.819212 133.19385 79.911535 132.80605 81.90625 132.09375 C 83.729407 131.08515 85.132501 129.5491 87.34375 129.1875 C 89.72629 127.92281 92.335643 127.11493 94.6875 125.78125 C 94.773469 127.29568 94.806451 128.79774 94.8125 130.3125 C 95.484275 131.6589 95.638289 133.2058 96.28125 134.5625 C 96.938326 136.1342 98.703192 137.06385 100.375 136.65625 C 101.97972 136.41145 103.25472 135.9182 104.90625 135 C 106.55778 134.0818 108.72408 133.0157 109.875 131.1875 C 110.67467 130.0855 112.46382 128.49585 113.25 127.34375 C 115.24074 124.83651 115.94434 124.85079 117.84375 122 C 118.36103 121.26674 119.03079 120.07827 119.5625 118.875 C 119.9458 120.12335 120.84714 121.2337 121.625 122.3125 C 122.47119 123.9824 124.00018 125.18155 124.625 126.96875 C 125.30878 128.55195 126.58639 130.6795 128.625 130.125 C 130.83276 129.4589 132.40146 127.57438 133.375 125.5625 C 134.91905 122.55773 136.47589 119.49583 137.34375 116.21875 C 137.96387 114.24055 138.06322 112.23822 137.3125 110.28125 C 136.75356 108.32872 138.07236 106.19282 139.90625 105.5 C 140.22434 105.23578 140.50423 104.90869 140.75 104.5625 C 141.35512 106.35272 142.39636 107.94568 143.59375 109.40625 C 144.95604 111.04221 146.15395 112.90404 147.90625 114.15625 C 149.87486 115.45442 152.22378 114.44954 154.3125 114.09375 C 156.28908 113.65338 158.3616 112.83725 159.625 111.1875 C 160.01361 109.80552 160.76594 108.54306 160.96875 107.125 C 161.15676 104.83865 161.46679 102.48895 160.78125 100.25 C 160.49902 98.90354 159.40462 97.75351 160.6875 96.625 C 161.60983 94.33272 162.99939 92.23489 163.59375 89.8125 C 164.3475 87.20471 164.43768 84.35682 163.53125 81.78125 C 163.46698 81.647333 163.40087 81.521579 163.3125 81.40625 C 162.81338 80.447474 161.58934 79.811097 160.78125 79.15625 C 158.7875 77.72951 156.47166 76.71294 154.75 74.9375 C 153.62256 73.33711 155.23136 71.78004 157.34375 71.65625 C 159.09175 71.01712 162.59626 72.04156 164.40625 72.1875 C 166.03115 72.7305 165.94089 73.80632 167.1875 74.90625 C 169.20736 76.91463 170.25951 78.24375 172.28125 80.25 C 173.2837 81.83699 174.24518 83.59866 175.8125 84.6875 C 177.29587 85.91328 178.45616 83.8907 178.15625 82.5 C 178.13685 80.84636 176.89109 79.63714 175.59375 78.8125 C 173.43469 77.07291 171.05444 73.83676 168.71875 72.3125 C 168.44673 71.17835 167.30742 70.30836 169.4375 70.03125 C 171.94173 69.48016 174.92207 69.60989 176.8125 67.59375 C 178.13148 65.94226 178.07702 63.39788 176.90625 61.6875 C 176.0287 60.56839 175.02434 59.60805 174.0625 58.53125 C 170.97103 55.57438 167.74158 52.67988 164.0625 50.46875 C 163.23377 50.00896 162.48499 49.36897 161.5625 49.09375 z M 9.0625 58.15625 C 8.2740117 58.188248 7.5134701 58.420451 6.84375 58.96875 C 3.9728419 60.94727 1.6974434 64.50468 2.5625 68.09375 C 3.2108757 69.77668 4.4694316 71.31336 5.875 72.5625 C 8.6145867 74.70675 12.085733 76.02846 15.5 76.09375 C 19.028543 76.16125 22.522384 76.57677 26.03125 76.40625 C 28.705721 76.27628 31.427095 76.47575 34.03125 75.65625 C 35.895051 75.28514 37.795463 75.36753 39.625 74.65625 C 41.495522 73.92904 43.617197 74.30283 45.53125 73.71875 C 46.901721 73.61213 48.233276 74.10575 49.59375 74.15625 C 52.666525 74.00578 51.056846 70.43168 49.5 69.28125 C 48.0163 67.59235 45.712208 67.34486 43.90625 66.25 C 42.287309 65.75824 40.546182 65.61081 39.125 64.59375 C 37.510307 62.70159 34.01327 64.93264 36.40625 66.71875 C 37.627009 67.95851 40.672077 68.0396 40.8125 69.90625 C 38.735743 71.35788 35.951966 70.54496 33.6875 71.5 C 31.524949 71.65355 29.427174 72.29929 27.28125 72.375 C 22.256921 71.99808 16.680648 73.26184 12.375 71.75 C 9.7994185 71.06131 6.676894 70.55744 5.125 68.125 C 4.1105858 65.9868 5.614968 64.00114 7.3125 62.8125 C 9.0903648 61.67429 11.498321 62.37469 12.9375 63.875 C 15.893761 65.01416 14.83963 59.96482 12.8125 59.40625 C 11.750799 58.626631 10.376647 58.10292 9.0625 58.15625 z M 58.09375 70.90625 C 56.665735 70.840138 55.259324 72.59958 56.125 74.15625 C 56.772642 75.11174 57.784015 76.30652 59.03125 76.3125 C 61.399011 76.00045 60.843114 72.79205 59.4375 71.65625 C 59.03434 71.153505 58.569755 70.928287 58.09375 70.90625 z M 148.96875 91.53125 C 150.35255 91.39832 151.55695 92.2783 152.40625 93.28125 C 153.29045 94.50017 154.83496 96.06693 153.84375 97.65625 C 153.13198 99.39007 150.98571 100.24012 149.28125 99.4375 C 147.82215 98.79048 146.0597 97.73363 146.125 95.90625 C 146.01908 94.06845 147.0199 91.89725 148.96875 91.53125 z M 156.6875 101.0625 C 157.10144 103.39742 157.13578 105.84321 156.59375 108.15625 C 155.58591 109.71965 153.55073 109.86663 151.9375 110.40625 C 150.09481 110.75462 148.67106 109.17833 147.5625 107.9375 C 146.24889 106.37201 145.23766 104.50875 144.9375 102.46875 C 145.91155 101.58521 146.59654 103.24369 147.625 103.34375 C 150.39949 104.36745 153.68939 103.56849 155.96875 101.78125 C 156.22759 101.56122 156.46366 101.31799 156.6875 101.0625 z M 102.96875 109.1875 C 103.92872 109.07026 105.00995 109.78393 104.84375 110.875 L 104.84375 111.0625 C 104.38663 113.32254 104.31888 115.8278 102.78125 117.6875 C 101.93291 118.64156 101.14321 120.42252 99.6875 120.25 C 98.717742 119.05686 99.930371 117.41691 100 116.0625 C 100.58643 113.88378 100.98049 111.57393 102.09375 109.59375 C 102.33806 109.34963 102.64876 109.22658 102.96875 109.1875 z M 78.125 110.71875 C 79.125744 110.67421 79.932299 110.92505 79.84375 112 C 78.667424 113.51041 77.118694 116.41143 74.84375 115.25 C 72.606726 114.19358 72.223033 111.2484 75.3125 111.15625 C 75.955612 111.0778 77.124256 110.76329 78.125 110.71875 z "
         transform="translate(-1.2683227,873.61221)"
         id="path3995" />
    </g>
  </g>
  <g
     inkscape:groupmode="layer"
     id="layer3"
     inkscape:label="cc type"
     style="display:inline">
    <g
       transform="matrix(1.3577325,0,0,1.6045663,238.19422,-1391.5527)"
       style="font-size:40px;font-style:normal;font-variant:normal;font-weight:normal;font-stretch:normal;line-height:125%;letter-spacing:0px;word-spacing:0px;fill:#000000;fill-opacity:1;stroke:none;font-family:Open Sans;-inkscape-font-specification:Open Sans"
       id="text2991">
      <path
         style="font-size:72px;font-style:normal;font-variant:normal;font-weight:normal;font-stretch:normal;text-align:start;line-height:125%;writing-mode:lr-tb;text-anchor:start;font-family:Emmascript MVB Std;-inkscape-font-specification:Emmascript MVB Std"
         d="M 126.21875 15.1875 C 124.39722 15.275828 122.25031 15.836865 120.78125 16.5 C 119.00963 17.023939 115.02922 19.171211 110.53125 24.96875 C 107.68943 28.631632 103.30041 35.836784 102.4375 38.03125 C 102.1481 38.560949 101.94956 39.09537 101.9375 39.5625 C 100.47636 43.91073 94.965809 56.735041 89 60.375 C 88.731427 60.555899 86.710923 61.627143 85.65625 61.875 C 84.026306 62.258026 81.907364 62.745807 80.96875 61.90625 C 78.459579 59.433341 78.015133 58.379652 77.78125 55.0625 C 77.647785 53.170299 77.571441 49.868632 77.6875 48.78125 C 77.688613 47.603081 77.467637 45.178153 77.46875 44 C 77.470108 42.404885 77.164639 39.193628 77.59375 37.03125 C 78.269358 33.626729 79.787694 26.392531 83.71875 25.46875 C 86.49925 24.815355 88.11579 28.553098 89.9375 28.125 C 92.238612 27.584245 93.005708 23.850579 93.21875 21.5625 C 93.412729 19.161106 89.517729 16.669273 87.3125 17.1875 C 85.394907 17.638126 83.027756 18.917539 81.53125 20.09375 C 79.900749 21.06586 75.477752 23.874756 73.09375 31.03125 C 70.003211 35.173438 65.539782 46.584376 65.5 48.125 C 65.690639 49.258113 67.536944 50.114135 68.6875 49.84375 C 69.454537 49.663509 71.023643 46.593087 72.15625 45.03125 C 71.730723 49.018324 70.428731 50.151808 71.78125 59.375 C 72.524242 64.383188 73.914704 68.980876 79.53125 69.78125 C 80.470434 70.031707 81.630694 69.989152 82.78125 69.71875 C 88.342264 68.411943 92.892964 63.890858 96.9375 59.09375 C 99.541957 56.004687 103.1406 50.33419 104.5625 46.9375 C 104.91818 46.027005 105.18573 44.962436 105.4375 43.9375 C 104.98658 46.119554 104.63713 49.013118 104.4375 53.6875 C 104.22906 58.766113 104.23296 62.226369 109.5625 64.46875 C 110.43195 64.957469 111.60856 65.214314 112.78125 65.25 C 118.44926 65.422475 124.43855 61.285731 129.28125 57.65625 C 132.40976 55.311513 136.26134 51.630772 138.28125 48.6875 C 139.09072 47.440896 139.60635 45.695065 140.40625 44.5 C 141.73234 42.51881 144.80097 39.994581 144.84375 38.03125 C 144.88149 36.298896 143.52042 36.038654 142.25 36 C 141.46821 35.976252 139.91792 36.265379 139.21875 36.9375 C 138.31659 37.950158 137.38838 39.320045 137.0625 40.8125 C 134.82702 44.673744 127.06011 55.751946 120.5625 57.75 C 120.26681 57.856543 118.10622 58.376467 117.03125 58.34375 C 115.36994 58.293206 113.2279 58.21942 112.46875 57.15625 C 110.48196 54.091063 110.10561 52.11541 110.5 48.78125 C 110.7182 46.936592 111.37168 44.530501 111.6875 43.5 C 111.90811 42.35105 112.15439 39.930216 112.375 38.78125 C 112.375 38.78125 112.94384 34.036387 113.78125 32 C 115.06251 28.884253 117.93081 22.190585 121.9375 22.3125 C 124.7715 22.398826 125.64324 26.474737 127.5 26.53125 C 129.84538 26.602653 131.30335 23.176466 131.9375 21 C 132.57417 18.708021 129.21641 15.255887 126.96875 15.1875 C 126.72444 15.180059 126.47897 15.174882 126.21875 15.1875 z "
         transform="matrix(0.73652211,0,0,0.62322137,-175.43531,867.24537)"
         id="path3989" />
    </g>
  </g>
</svg>
