<?xml version="1.0" encoding="UTF-8" standalone="no"?>
<!-- Created with Inkscape (http://www.inkscape.org/) -->
<svg id="svg2" xmlns:rdf="http://www.w3.org/1999/02/22-rdf-syntax-ns#" xmlns="http://www.w3.org/2000/svg" height="139.9" width="180.23" version="1.1" xmlns:cc="http://creativecommons.org/ns#" xmlns:xlink="http://www.w3.org/1999/xlink" xmlns:dc="http://purl.org/dc/elements/1.1/">
 <metadata id="metadata7">
  <rdf:RDF>
   <cc:Work rdf:about="">
    <dc:format>image/svg+xml</dc:format>
    <dc:type rdf:resource="http://purl.org/dc/dcmitype/StillImage"/>
    <dc:title/>
   </cc:Work>
  </rdf:RDF>
 </metadata>
 <g id="layer1" transform="translate(-8.3745345,-877.54078)">
  <path id="path3849" d="m185.36-2.6786a78.393,56.607,0,1,1,-156.79,0,78.393,56.607,0,1,1,156.79,0z" transform="matrix(0.83940775,0,0,1.0315458,19.766921,943.51815)" fill="#ffe680"/>
  <path id="path2989" d="m179.29,90.357c0,49.114-39.975,88.929-89.286,88.929s-89.286-39.815-89.286-88.929c-0.00371-49.118,39.971-88.932,89.282-88.932s89.286,39.815,89.286,88.929z" transform="matrix(-0.85640974,0,0,0.7382558,178.441,875.09327)" fill="none"/>
  <text id="text2995" font-size="40px" font-weight="normal" xml:space="preserve" style="letter-spacing:0px;word-spacing:0px;" transform="translate(9.6428572,3.9285714)" font-stretch="normal" line-height="125%" font-variant="normal" font-style="normal" font-family="Open Sans" fill="#000000"><textPath id="textPath2999" style="writing-mode:lr-tb;letter-spacing:0.17px;text-anchor:start;text-align:start;" font-weight="normal" xlink:href="#path2989" font-size="72px" line-height="125%" font-stretch="normal" dx="0 5 9 4 4 2 12" font-variant="normal" font-style="normal" font-family="Emmascript MVB Std">jukebox</textPath></text>
  <path id="path3076" d="m179.29,90.357c0,49.114-39.975,88.929-89.286,88.929s-89.286-39.815-89.286-88.929c-0.00371-49.118,39.971-88.932,89.282-88.932s89.286,39.815,89.286,88.929z" transform="matrix(-0.62542627,0,0,-0.32698069,-34.223984,966.62118)" stroke="#000" fill="none"/>
  <text id="text2991" font-size="40px" font-weight="normal" xml:space="preserve" style="letter-spacing:0px;word-spacing:0px;" transform="matrix(1.3577325,0,0,1.6045663,246.56875,-514.01196)" font-stretch="normal" line-height="125%" font-variant="normal" font-style="normal" font-family="Open Sans" fill="#000000"><textPath id="textPath3846" xlink:href="#path3076"><tspan id="tspan2993" style="writing-mode:lr-tb;text-anchor:start;text-align:start;" font-weight="normal" font-size="72px" font-stretch="normal" dx="0 0 0 -5" font-variant="normal" font-style="normal" font-family="Emmascript MVB Std" line-height="125%">  cc</tspan></textPath></text>
 </g>
</svg>
